<?xml version="1.0" standalone="no"?>
<!DOCTYPE svg PUBLIC "-//W3C//DTD SVG 1.1//EN" "http://www.w3.org/Graphics/SVG/1.1/DTD/svg11.dtd" >
<svg xmlns="http://www.w3.org/2000/svg">
<metadata>
This is a custom SVG font generated by IcoMoon.
<iconset grid="20"></iconset>
</metadata>
<defs>
<font id="icomoon" horiz-adv-x="640" >
<font-face units-per-em="640" ascent="608" descent="-32" />
<missing-glyph horiz-adv-x="640" />
<glyph unicode="&#xf489;" d="M 140.00,247.375l 271.25-266.25q 13.125-13.125 31.875-13.125t 31.875,13.125l 31.875,31.875q 13.125,13.125 13.125,31.875t-13.125,31.875l-211.25,211.25l 211.25,211.25q 13.125,13.125 13.125,31.875t-13.125,31.875l-31.875,31.875q-13.125,13.125 -31.875,13.125t-31.875-13.125l-271.25-267.50q-20.00-20.00 -20.00-40.00t 20.00-40.00z"  />
<glyph unicode="&#xf488;" d="M 500.00,247.375l-271.25-266.25q-13.125-13.125 -31.875-13.125t-31.875,13.125l-31.875,31.875q-13.125,13.125 -13.125,31.875t 13.125,31.875l 211.25,211.25l-211.25,211.25q-13.125,13.125 -13.125,31.875t 13.125,31.875l 31.875,31.875q 13.125,13.125 31.875,13.125t 31.875-13.125l 271.25-267.50q 20.00-20.00 20.00-39.688t-20.00-40.313z"  />
<glyph unicode="&#xf473;" d="M 320.00-32.00q-86.875,0.00 -160.625,42.813t-116.563,116.563t-42.813,160.625t 42.813,160.625t 116.563,116.563t 160.625,42.813t 160.625-42.813t 116.563-116.563t 42.813-160.625t-42.813-160.625t-116.563-116.563t-160.625-42.813zM 519.375,291.75l0.00,1.25 l0.00,1.25 q0.00,1.875 -0.625,3.125q0.00,0.625 -0.313,1.563t-0.625,1.25t-0.625,1.563t-0.313,1.875q-3.125,8.75 -8.125,13.75l-119.375,119.375q-11.875,11.875 -28.75,11.875t-28.75-11.875t-11.875-28.75
t 11.875-28.75l 51.25-51.25l-223.125,0.00 q-16.875,0.00 -28.438-11.875t-11.563-28.125t 11.563-28.125t 28.438-11.875l 223.125,0.00 l-51.25-51.25q-11.875-11.875 -11.875-28.75t 11.875-28.75t 28.75-11.875t 28.75,11.875l 119.375,119.375q 13.125,13.125 10.625,33.125z"  />
<glyph unicode="&#xf472;" d="M 320.00-32.00q-86.875,0.00 -160.625,42.813t-116.563,116.563t-42.813,160.625t 42.813,160.625t 116.563,116.563t 160.625,42.813t 160.625-42.813t 116.563-116.563t 42.813-160.625t-42.813-160.625t-116.563-116.563t-160.625-42.813zM 480.00,328.00l-223.125,0.00 l 51.25,51.25q 11.875,11.875 11.875,28.75t-11.875,28.75t-28.75,11.875t-28.75-11.875l-119.375-119.375q-5.00-5.00 -8.125-13.75q0.00-0.625 -1.25-3.75l-0.313-0.938
t-0.313-1.563q0.00-1.25 -0.625-3.125l0.00-1.25 l0.00-1.25 q-2.50-20.00 10.625-33.125l 119.375-119.375q 11.875-11.875 28.75-11.875t 28.75,11.875t 11.875,28.75t-11.875,28.75l-51.25,51.25l 223.125,0.00 q 16.25,0.00 28.125,11.875t 11.875,28.125t-11.563,28.125t-28.438,11.875z"  />
<glyph unicode="&#xe00a;" d="M 320.04-31.92L 320.04,607.92 C 320.04,607.92, 640.00,368.00, 640.00,288.00C 640.00,198.00, 320.04-31.92, 320.04-31.92z
	 M0.00,368.00l 320.00,0.00 l0.00-160.00 L0.00,208.00 L0.00,368.00 z"  />
<glyph unicode="&#xe00b;" d="M 320.00,208.00L 320.00,368.00 l 320.00,0.00 l0.00-160.00 L 320.00,208.00 z M0.00,288.00c0.00,80.00, 319.96,319.92, 319.96,319.92l0.00-639.84 C 319.96-31.92,0.00,198.00,0.00,288.00
	z"  />
<glyph unicode="&#xf060;" d="M 548.571,288.00l0.00-45.714 q0.00-18.929 -11.607-32.321t-30.179-13.393l-251.429,0.00 l 104.643-105.00q 13.571-12.857 13.571-32.143t-13.571-32.143l-26.786-27.143q-13.214-13.214 -32.143-13.214q-18.571,0.00 -32.50,13.214l-232.50,232.857q-13.214,13.214 -13.214,32.143q0.00,18.571 13.214,32.50l 232.50,232.143q 13.571,13.571 32.50,13.571q 18.571,0.00 32.143-13.571l 26.786-26.429q 13.571-13.571 13.571-32.50t-13.571-32.50l-104.643-104.643l 251.429,0.00 q 18.571,0.00 30.179-13.393 t 11.607-32.321z" horiz-adv-x="548.5714285714286"  />
<glyph unicode="&#xf061;" d="M 525.714,265.143q0.00-19.286 -13.214-32.50l-232.50-232.50q-13.929-13.214 -32.50-13.214q-18.214,0.00 -32.143,13.214l-26.786,26.786q-13.571,13.571 -13.571,32.50t 13.571,32.50l 104.643,104.643l-251.429,0.00 q-18.571,0.00 -30.179,13.393t-11.607,32.321l0.00,45.714 q0.00,18.929 11.607,32.321t 30.179,13.393l 251.429,0.00 l-104.643,105.00q-13.571,12.857 -13.571,32.143t 13.571,32.143l 26.786,26.786q 13.571,13.571 32.143,13.571q 18.929,0.00 32.50-13.571l 232.50-232.50q 13.214-12.50 13.214-32.143z" horiz-adv-x="548.5714285714286"  />
<glyph unicode="&#xf0d9;" d="M 228.571,448.00l0.00-320.00 q0.00-9.286 -6.786-16.071t-16.071-6.786t-16.071,6.786l-160.00,160.00q-6.786,6.786 -6.786,16.071t 6.786,16.071l 160.00,160.00q 6.786,6.786 16.071,6.786t 16.071-6.786t 6.786-16.071z" horiz-adv-x="228.57142857142858"  />
<glyph unicode="&#xf0da;" d="M 205.714,288.00q0.00-9.286 -6.786-16.071l-160.00-160.00q-6.786-6.786 -16.071-6.786t-16.071,6.786t-6.786,16.071l0.00,320.00 q0.00,9.286 6.786,16.071t 16.071,6.786t 16.071-6.786l 160.00-160.00q 6.786-6.786 6.786-16.071z" horiz-adv-x="228.57142857142858"  />
<glyph unicode="&#xe00c;" d="M 319.52,531.20L 319.52,408.704L 544.064,408.736L 544.064,167.072L 319.52,167.072L 319.52,44.80L 76.864,288.00 	z"  />
<glyph unicode="&#xe00d;" d="M 320.48,531.20L 320.48,408.704L 95.936,408.736L 95.936,167.072L 320.48,167.072L 320.48,44.80L 563.136,288.00 	z"  />
<glyph unicode="&#xe014;" d="M 365.984,463.488c-13.376-13.056-144.064-150.272-144.064-150.272C 214.784,306.24, 211.232,297.12, 211.232,288.00s 3.552-18.24, 10.688-25.216
	c0.00,0.00, 130.688-137.216, 144.064-150.24c 13.376-13.056, 37.44-13.952, 51.712,0.00c 14.24,13.92, 15.36,33.344-0.032,50.40L 297.76,288.00l 119.904,125.056
	c 15.392,17.088, 14.272,36.512, 0.032,50.432C 403.392,477.408, 379.328,476.544, 365.984,463.488z"  />
<glyph unicode="&#xe015;" d="M 274.016,463.488c 13.376-13.056, 144.064-150.272, 144.064-150.272C 425.248,306.24, 428.80,297.12, 428.80,288.00s-3.552-18.24-10.72-25.216
	c0.00,0.00-130.688-137.216-144.064-150.24c-13.376-13.056-37.408-13.952-51.712,0.00c-14.272,13.92-15.392,33.344,0.00,50.40L 342.24,288.00L 222.336,413.056
	c-15.392,17.088-14.272,36.512,0.00,50.432C 236.608,477.408, 260.672,476.544, 274.016,463.488z"  />
<glyph unicode="&#xe018;" d="M 460.768,50.624c 8.576-8.672, 8.576-22.656,0.00-31.328s-22.432-8.672-31.008,0.00l-250.56,253.024c-8.576,8.672-8.576,22.688,0.00,31.328
	l 250.56,253.056c 8.576,8.672, 22.432,8.672, 31.008,0.00s 8.576-22.656,0.00-31.328L 232.288,288.00L 460.768,50.624z"  />
<glyph unicode="&#xe019;" d="M 179.19,50.624c -8.576-8.672, -8.576-22.656,0.00-31.328s 22.432-8.672 31.008,0.00l 250.56,253.024c 8.576,8.672 8.576,22.688,0.00,31.328
	l -250.56,253.056c -8.576,8.672, -22.432,8.672, -31.008,0.00s -8.576-22.656,0.00-31.328L 407.67,288.00L 179.19,50.624z" />
<glyph unicode="&#xe010;" d="M 614.40,288.00c0.00,162.592-131.808,294.40-294.40,294.40S 25.60,450.592, 25.60,288.00c0.00-162.624, 131.808-294.432, 294.40-294.432S 614.40,125.408, 614.40,288.00z M 89.60,288.00
		c0.00,127.232, 103.168,230.40, 230.40,230.40s 230.40-103.168, 230.40-230.40c0.00-127.264-103.168-230.432-230.40-230.432S 89.60,160.736, 89.60,288.00z M 443.20,230.40L 443.20,345.60 L 312.32,345.60 L 312.32,417.60 
		L 190.40,288.00l 121.92-129.60L 312.32,230.40 L 443.20,230.40 z"  />
<glyph unicode="&#xe011;" d="M 25.60,288.00c0.00-162.592, 131.84-294.40, 294.40-294.40c 162.592,0.00, 294.40,131.808, 294.40,294.40C 614.40,450.592, 482.592,582.40, 320.00,582.40C 157.408,582.40, 25.60,450.592, 25.60,288.00z
		 M 550.40,288.00c0.00-127.232-103.168-230.40-230.40-230.40S 89.60,160.736, 89.60,288.00C 89.60,415.264, 192.736,518.40, 320.00,518.40S 550.40,415.264, 550.40,288.00z M 196.80,345.60l0.00-115.20 l 130.88,0.00 l0.00-72.00 
		L 449.60,288.00l-121.92,129.60L 327.68,345.60 L 196.80,345.60 z"  />
<glyph unicode="&#xf304;" d="M 628.125,259.875l-282.50-280.00q-11.875-11.875 -28.438-11.875t-28.438,11.875l-57.50,56.875q-11.875,11.25 -11.875,28.125t 11.875,28.125l 116.25,115.00l-307.50,0.00 q-16.875,0.00 -28.438,11.875t-11.563,28.125l0.00,80.00 q0.00,16.875 11.563,28.438t 28.438,11.563l 308.125,0.00 l-116.875,115.625q-11.875,11.875 -11.875,28.438t 11.875,28.438l 57.50,56.875q 11.875,11.25 28.438,11.25t 28.438-11.25l 282.50-280.625q 11.875-11.875 11.875-28.438t-11.875-28.438z"  />
<glyph unicode="&#xf305;" d="M 11.875,316.75l 282.50,280.625q 11.875,11.875 28.438,11.875t 28.438-11.875l 57.50-56.875q 11.875-11.875 11.875-28.438t-11.875-28.438l-116.25-115.00l 307.50,0.00 q 16.875,0.00 28.438-11.563t 11.563-28.438l0.00-80.00 q0.00-16.25 -11.563-28.125t-28.438-11.875l-308.125,0.00 l 116.875-115.625q 11.875-11.25 11.875-28.125t-11.875-28.125l-57.50-56.875q-11.875-11.875 -28.438-11.875t-28.438,11.875l-282.50,280.00q-11.875,11.875 -11.875,28.438t 11.875,28.438z
"  />
<glyph unicode="&#xe002;" d="M 320.00,608.00C 143.269,608.00,0.00,464.731,0.00,288.00s 143.269-320.00, 320.00-320.00s 320.00,143.269, 320.00,320.00S 496.731,608.00, 320.00,608.00z M 320.00,28.00
		c-143.594,0.00-260.00,116.406-260.00,260.00S 176.406,548.00, 320.00,548.00s 260.00-116.406, 260.00-260.00S 463.594,28.00, 320.00,28.00zM 508.285,316.284l-160.001,160.00c-15.62,15.621-40.946,15.621-56.567,0.00c-15.621-15.621-15.621-40.948,0.00-56.569L 383.431,328.00
	L 160.00,328.00 c-22.091,0.00-40.00-17.909-40.00-40.00c0.00-22.091, 17.909-40.00, 40.00-40.00l 223.431,0.00 l-91.716-91.715c-15.621-15.621-15.621-40.949,0.00-56.57
	C 299.526,91.905, 309.764,88.00, 320.00,88.00s 20.474,3.905, 28.284,11.715l 160.001,160.00C 523.905,275.336, 523.905,300.664, 508.285,316.284z"  />
<glyph unicode="&#xe003;" d="M 320.00,608.00C 496.731,608.00, 640.00,464.731, 640.00,288.00s -143.269-320.00, -320.00-320.00s -320.00,143.269, -320.00,320.00S 143.269,608.00, 320.00,608.00z M 320.00,28.00
		c 143.594,0.00 260.00,116.406 260.00,260.00S 463.594,548.00, 320.00,548.00s -260.00-116.406, -260.00-260.00S 176.406,28.00, 320.00,28.00zM 131.715,316.284l 160.001,160.00c 15.62,15.621 40.946,15.621 56.567,0.00c 15.621-15.621 15.621-40.948,0.00-56.569L 256.569,328.00
	L 480.00,328.00 c 22.091,0.00 40.00-17.909 40.00-40.00c0.00-22.091, -17.909-40.00, -40.00-40.00l-223.431,0.00 l 91.716-91.715c 15.621-15.621 15.621-40.949,0.00-56.57
	C 340.474,91.905, 330.236,88.00, 320.00,88.00s -20.474,3.905, -28.284,11.715l -160.001,160.00C 116.095,275.336, 116.095,300.664, 131.715,316.284z"  />
<glyph unicode="&#xe006;" d="M 640.00,368.00L 320.00,368.00L 440.00,488.00L 320.00,608.00L0.00,288.00L 320.00-32.00L 440.00,88.00L 320.00,208.00L 640.00,208.00 z"  />
<glyph unicode="&#xe007;" d="M0.00,208.00L 320.00,208.00L 200.00,88.00L 320.00-32.00L 640.00,288.00L 320.00,608.00L 200.00,488.00L 320.00,368.00L0.00,368.00 z"  />
<glyph unicode="&#xe000;" d="M 546.28,61.72c-125.00-124.96-327.56-124.96-452.56,0.00
	c-124.96,125.00-124.96,327.56,0.00,452.56c 125.00,124.96, 327.56,124.96, 452.56,0.00C 671.24,389.28, 671.24,186.72, 546.28,61.72z M 400.00,446.40
	L 130.00,283.00L 400.00,119.60L 400.00,446.40 z"  />
<glyph unicode="&#xe01d;" d="M 546.28,61.72c-125.00-124.96-327.56-124.96-452.56,0.00
	c-124.96,125.00-124.96,327.56,0.00,452.56c 125.00,124.96, 327.56,124.96, 452.56,0.00C 671.24,389.28, 671.24,186.72, 546.28,61.72z M 200.00,447.64l0.00-319.28 
	L 480.00,288.00L 200.00,447.64z"  />
<glyph unicode="&#x20;" horiz-adv-x="320" />
<glyph class="hidden" unicode="&#xf000;" d="M0,608L 640 -32L0 -32 z" horiz-adv-x="0" />
</font>
</defs>
</svg>
